<?xml version="1.0" encoding="UTF-8" standalone="no"?>
<!-- Created with Inkscape (http://www.inkscape.org/) -->

<svg
   xmlns:dc="http://purl.org/dc/elements/1.1/"
   xmlns:cc="http://creativecommons.org/ns#"
   xmlns:rdf="http://www.w3.org/1999/02/22-rdf-syntax-ns#"
   xmlns:svg="http://www.w3.org/2000/svg"
   xmlns="http://www.w3.org/2000/svg"
   xmlns:sodipodi="http://sodipodi.sourceforge.net/DTD/sodipodi-0.dtd"
   xmlns:inkscape="http://www.inkscape.org/namespaces/inkscape"
   width="1382.4301"
   height="520"
   id="svg11927"
   version="1.1"
   inkscape:version="0.48.1 "
   sodipodi:docname="Neues Dokument 5">
  <defs
     id="defs11929" />
  <sodipodi:namedview
     id="base"
     pagecolor="#ffffff"
     bordercolor="#666666"
     borderopacity="1.0"
     inkscape:pageopacity="0.0"
     inkscape:pageshadow="2"
     inkscape:zoom="1.1376695"
     inkscape:cx="691.21503"
     inkscape:cy="260"
     inkscape:document-units="px"
     inkscape:current-layer="layer1"
     showgrid="false"
     fit-margin-top="0"
     fit-margin-left="0"
     fit-margin-right="0"
     fit-margin-bottom="0"
     inkscape:window-width="1680"
     inkscape:window-height="990"
     inkscape:window-x="-4"
     inkscape:window-y="-4"
     inkscape:window-maximized="1" />
  <metadata
     id="metadata11932">
    <rdf:RDF>
      <cc:Work
         rdf:about="">
        <dc:format>image/svg+xml</dc:format>
        <dc:type
           rdf:resource="http://purl.org/dc/dcmitype/StillImage" />
        <dc:title></dc:title>
      </cc:Work>
    </rdf:RDF>
  </metadata>
  <g
     inkscape:label="Ebene 1"
     inkscape:groupmode="layer"
     id="layer1"
     transform="translate(63.628028,387.82648)">
    <g
       id="g7520"
       transform="matrix(56.554688,0,0,-56.554688,753.15435,120.98587)"
       style="fill:#1a1a1a">
      <path
         inkscape:connector-curvature="0"
         d="m 0,0 0,0.964 0.245,0 0.492,-0.629 0,0.629 0.231,0 L 0.968,0 0.713,0 0.237,0.617 0.237,0 0,0 z m -1.118,0.48 c 0,-0.109 0.032,-0.194 0.097,-0.25 0.064,-0.056 0.145,-0.084 0.246,-0.084 0.096,0 0.181,0.028 0.242,0.084 0.068,0.056 0.096,0.141 0.096,0.254 0,0.114 -0.028,0.194 -0.088,0.249 -0.069,0.057 -0.15,0.081 -0.25,0.081 -0.105,0 -0.186,-0.028 -0.246,-0.081 C -1.086,0.678 -1.118,0.594 -1.118,0.48 M -1.356,0.477 c 0,0.096 0.02,0.181 0.056,0.245 l 0.11,0.136 0.152,0.085 c 0.077,0.029 0.162,0.041 0.259,0.041 0.177,0 0.318,-0.045 0.424,-0.133 0.1,-0.089 0.157,-0.214 0.157,-0.371 0,-0.157 -0.053,-0.283 -0.157,-0.372 -0.106,-0.087 -0.247,-0.129 -0.42,-0.129 -0.178,0 -0.32,0.042 -0.424,0.129 -0.101,0.089 -0.157,0.21 -0.157,0.369 m -0.946,0.317 0,-0.628 0.187,0 0.157,0.008 0.101,0.04 0.069,0.093 0.023,0.173 -0.023,0.169 -0.073,0.093 -0.118,0.044 C -2.015,0.79 -2.083,0.794 -2.188,0.794 l -0.114,0 z m -0.237,0.17 0.443,0 c 0.102,0 0.178,-0.008 0.235,-0.021 L -1.68,0.854 -1.566,0.697 -1.526,0.473 -1.563,0.267 -1.695,0.097 -1.865,0.021 -2.079,0 l -0.46,0 0,0.964 z M -3.762,0 l 0,0.964 0.251,0 0.489,-0.629 0,0.629 0.233,0 0,-0.964 -0.254,0 -0.48,0.617 0,-0.617 -0.239,0 z m -1.113,0.48 c 0,-0.109 0.027,-0.194 0.092,-0.25 0.069,-0.056 0.149,-0.084 0.251,-0.084 0.093,0 0.18,0.028 0.242,0.084 0.064,0.056 0.097,0.141 0.097,0.254 0,0.114 -0.033,0.194 -0.093,0.249 -0.066,0.057 -0.146,0.081 -0.246,0.081 -0.11,0 -0.191,-0.028 -0.251,-0.081 C -4.848,0.678 -4.875,0.594 -4.875,0.48 M -5.113,0.477 c 0,0.096 0.019,0.181 0.051,0.245 l 0.114,0.136 0.153,0.085 c 0.072,0.029 0.161,0.041 0.254,0.041 0.178,0 0.319,-0.045 0.428,-0.133 0.101,-0.089 0.154,-0.214 0.154,-0.371 0,-0.157 -0.049,-0.283 -0.154,-0.372 -0.109,-0.087 -0.25,-0.129 -0.419,-0.129 -0.178,0 -0.32,0.042 -0.429,0.129 -0.101,0.089 -0.152,0.21 -0.152,0.369 M -6.106,0 l 0,0.964 0.238,0 0,-0.798 0.618,0 0,-0.166 -0.856,0 z m -6.074,6.476 c 0.102,0.02 0.178,0.044 0.279,0.069 0.436,0.202 0.82,0.52 0.949,1.005 l -0.016,0.202 c -0.133,0.346 -0.452,0.576 -0.807,0.648 -0.187,0.017 -0.344,0.061 -0.509,0.025 L -12.486,8.283 -12.53,8.199 c -0.061,-0.549 0.144,-1.073 0.185,-1.622 l 0.069,-0.081 0.096,-0.02 z M 0.516,5.399 0.693,5.416 C 0.847,5.464 0.959,5.612 1.016,5.758 L 1.028,5.843 0.959,5.959 C 0.858,6.028 0.729,6.036 0.616,5.964 0.438,5.862 0.338,5.673 0.374,5.504 L 0.431,5.42 0.516,5.399 z m -1.8,-0.173 0.024,0 0.125,0.158 c 0.021,0.491 0.036,0.991 -0.096,1.471 L -1.292,6.976 -1.3,7.025 C -1.401,7.324 -1.599,7.582 -1.93,7.683 L -2.1,7.68 -2.313,7.525 C -2.406,7.4 -2.357,7.243 -2.406,7.098 l 0.049,-0.521 0.136,-0.319 0.025,-0.057 c 0.133,-0.326 0.38,-0.581 0.637,-0.817 l 0.174,-0.13 0.101,-0.028 z m -9.261,-0.165 0.036,0.011 c 0.213,0.085 0.355,0.312 0.404,0.54 -0.004,0.121 -0.044,0.214 -0.089,0.291 l -0.227,0.061 c -0.103,-0.045 -0.212,-0.121 -0.241,-0.251 -0.027,-0.193 -0.084,-0.338 -0.06,-0.495 l 0.077,-0.138 0.081,-0.024 0.019,0.005 z m 5.223,-0.122 0.084,0 c 0.197,0.093 0.322,0.287 0.354,0.5 -0.004,0.134 -0.004,0.246 -0.06,0.347 L -5.001,5.818 C -5.105,5.851 -5.238,5.826 -5.339,5.773 L -5.464,5.561 c 0,-0.158 -0.056,-0.328 -0.008,-0.489 l 0.056,-0.1 0.094,-0.033 z M 8.413,4.915 8.469,4.939 8.525,4.983 8.561,5.032 C 8.582,5.274 8.606,5.561 8.425,5.741 L 8.308,5.762 8.251,5.741 8.126,5.62 C 8.041,5.439 7.974,5.241 7.945,5.04 L 7.985,4.972 C 8.114,4.915 8.267,4.939 8.413,4.915 m -21.685,-0.348 0.117,0.013 0.164,0.085 0.077,0.061 0.112,0.104 c 0.365,0.855 -0.019,1.792 -0.237,2.635 l -0.077,0.056 -0.084,0 c -0.307,-0.121 -0.383,-0.496 -0.468,-0.774 -0.158,-0.61 -0.303,-1.315 0.012,-1.877 0.105,-0.104 0.182,-0.214 0.299,-0.286 l 0.085,-0.017 z m 5.628,-0.028 0.169,0.017 c 0.146,0.052 0.324,0.161 0.36,0.338 0.024,0.259 -0.157,0.409 -0.319,0.545 -0.129,0.065 -0.254,0.106 -0.372,0.093 L -7.97,5.392 C -8.059,5.173 -8.018,4.894 -7.89,4.701 l 0.145,-0.145 0.101,-0.017 z m -5.511,-0.362 c 0.37,0.048 0.681,0.25 0.862,0.596 0.066,0.259 0.191,0.481 0.151,0.727 -0.078,0.144 -0.049,0.343 0.027,0.492 l 0.194,0.125 c 0.513,0.06 1.058,0.246 1.368,0.706 0.169,0.263 0.169,0.598 0.109,0.876 -0.165,0.468 -0.548,0.73 -0.948,0.932 -0.529,0.129 -1.094,0.068 -1.611,0.189 L -13.071,8.771 -13.1,8.687 -13.131,8.485 c -0.734,-0.826 -1.256,-1.989 -1.11,-3.15 0.049,-0.202 0.077,-0.38 0.142,-0.553 0.125,-0.299 0.427,-0.517 0.742,-0.578 l 0.202,-0.027 z m 4.709,-1.401 c 0.242,0.142 0.161,0.44 0.218,0.669 -0.057,0.259 0,0.533 -0.089,0.78 L -8.386,4.281 -8.523,4.285 C -8.785,4.038 -8.717,3.559 -8.762,3.235 -8.733,3.118 -8.757,3.051 -8.733,2.962 -8.696,2.885 -8.64,2.812 -8.543,2.76 l 0.097,0.016 z m 5.963,-0.399 c 0.283,0 0.448,0.254 0.626,0.435 0.194,0.367 0.44,0.69 0.549,1.07 l 0.024,0.173 c 0.085,0.126 0.069,0.287 0.069,0.44 L -1.256,4.556 C -1.526,4.669 -1.801,4.479 -2.066,4.382 -2.562,4.038 -3.075,3.659 -3.289,3.115 -3.257,2.857 -3.172,2.644 -2.967,2.502 -2.801,2.434 -2.64,2.372 -2.483,2.377 M -8.624,2.219 c 0.101,-0.003 0.198,0.02 0.295,0.052 0.262,0.125 0.439,0.373 0.487,0.687 0.013,0.347 0,0.681 0.013,1.008 0.027,0.117 0.165,0.154 0.269,0.158 0.38,-0.062 0.736,0 1.09,-0.045 0.437,0.021 0.821,0.227 1.232,0.157 0.379,-0.136 0.839,-0.229 1.21,0 l 0.113,0.077 c 0.068,0.069 0.17,0.195 0.125,0.316 L -3.814,4.697 -3.907,4.758 -4.044,4.741 -4.161,4.681 C -4.331,4.629 -4.536,4.508 -4.71,4.616 l -0.028,0.081 0.254,0.319 0.081,0.387 c 0.02,0.138 -0.025,0.258 -0.057,0.383 -0.104,0.218 -0.315,0.432 -0.594,0.415 -0.268,0.005 -0.58,0.061 -0.737,-0.165 L -5.863,5.992 C -6.11,5.713 -6.15,5.298 -6.065,4.931 L -5.993,4.701 -6.054,4.616 -6.292,4.556 -6.449,4.665 C -6.493,5.052 -6.61,5.484 -6.966,5.718 -7.321,5.979 -7.736,6.137 -8.155,5.992 -8.798,5.722 -9.165,4.955 -9.814,4.697 l -0.199,0.02 -0.064,0.056 0,0.057 c 0.189,0.295 0.541,0.513 0.52,0.892 -0.019,0.136 -0.064,0.229 -0.113,0.322 -0.157,0.214 -0.468,0.303 -0.714,0.27 -0.322,-0.056 -0.621,-0.121 -0.782,-0.399 -0.138,-0.274 -0.064,-0.531 -0.073,-0.782 L -11.287,5.04 -11.368,4.999 c -0.101,-0.023 -0.21,0.017 -0.311,0.013 L -11.735,4.976 -11.76,4.898 -11.72,4.83 c 0.203,-0.113 0.456,-0.061 0.659,-0.189 l 0.069,-0.061 c 0.229,-0.182 0.523,-0.403 0.854,-0.376 0.36,0.045 0.638,0.291 0.973,0.319 L -9.116,4.495 -9.096,4.442 -9.137,3.946 C -9.258,3.547 -9.112,3.143 -9.072,2.736 L -9.04,2.644 c 0.028,-0.114 0.113,-0.21 0.182,-0.312 l 0.141,-0.093 0.093,-0.02 z m 5.969,-0.254 c 0.499,-0.025 1.015,0.145 1.306,0.553 0.065,0.186 0.19,0.319 0.275,0.457 0.113,0.285 0.23,0.572 0.323,0.878 0.093,0.202 0.117,0.46 0.189,0.69 l 0.021,0.065 0.036,0.048 c 0.125,0.07 0.271,0.041 0.4,-0.012 L 0.177,4.378 C 0.552,4.185 1.032,3.966 1.437,4.241 1.679,4.386 1.929,4.366 2.126,4.241 2.26,4.147 2.441,4.1 2.587,4.177 2.768,4.257 2.868,4.398 3.014,4.479 L 3.243,4.455 C 3.34,4.338 3.481,4.249 3.595,4.14 L 3.7,4.1 3.852,4.204 c 0.159,0.323 0.214,0.67 0.316,1.029 L 4.337,5.456 4.535,5.464 C 4.951,5.282 4.987,4.773 5.161,4.414 L 5.205,4.378 5.347,4.366 C 5.62,4.563 5.482,4.931 5.721,5.153 l 0.081,0.044 0.06,0 C 6.157,4.983 6.233,4.563 6.553,4.313 6.634,4.265 6.726,4.213 6.839,4.177 l 0.255,0.027 c 0.189,0.081 0.258,0.335 0.46,0.412 L 7.61,4.624 C 7.837,4.527 7.837,4.185 8.094,4.107 8.267,4.067 8.469,4.038 8.646,4.083 L 8.811,4.177 C 9.006,4.499 9.406,4.58 9.761,4.596 L 9.825,4.665 9.821,4.745 9.765,4.802 C 9.616,4.87 9.45,4.842 9.289,4.874 L 9.14,4.999 C 9.083,5.42 9.119,5.976 8.683,6.193 8.436,6.322 8.19,6.206 7.994,6.093 7.538,5.718 7.525,5.012 7.041,4.656 6.96,4.616 6.855,4.616 6.759,4.641 L 6.657,4.717 C 6.597,4.976 6.464,5.233 6.415,5.5 L 6.326,5.722 C 6.278,5.814 6.205,5.879 6.145,5.959 L 6.068,6.004 c -0.222,0.072 -0.48,0 -0.63,-0.178 L 5.322,5.697 5.064,5.685 4.991,5.733 C 4.81,5.927 4.491,6.004 4.232,5.959 3.769,5.818 3.82,5.218 3.425,4.999 3.255,4.955 3.098,5.113 2.916,5.08 2.683,5.016 2.687,4.737 2.485,4.641 L 2.4,4.641 2.283,4.685 C 2.162,4.822 2.187,5.016 2.247,5.182 2.312,5.29 2.4,5.363 2.478,5.42 L 3.042,5.532 3.3,5.612 3.34,5.644 3.356,5.786 3.199,5.915 c -0.141,0.061 -0.283,0 -0.431,0.036 L 2.538,5.943 C 2.268,5.851 1.985,5.673 1.848,5.392 L 1.819,5.274 C 1.707,4.915 1.432,4.596 1.044,4.527 0.895,4.539 0.766,4.58 0.688,4.697 L 0.677,4.773 C 0.968,5.052 1.464,5.161 1.505,5.673 1.562,5.843 1.5,6.004 1.388,6.101 1.134,6.303 0.794,6.347 0.531,6.262 0.237,6.177 0.043,5.959 -0.105,5.749 L -0.218,5.42 -0.303,5.335 -0.388,5.326 l -0.089,0.058 -0.04,0.08 c -0.041,0.148 0,0.285 0,0.439 C -0.614,6.121 -0.585,6.339 -0.679,6.565 -0.695,6.662 -0.687,6.723 -0.695,6.803 -0.9,7.319 -1.135,7.909 -1.728,8.059 -2.063,8.126 -2.422,8.026 -2.655,7.816 -2.728,7.703 -2.776,7.599 -2.829,7.501 -2.99,6.965 -2.789,6.403 -2.539,5.915 -2.365,5.616 -2.14,5.399 -1.901,5.182 L -1.882,5.133 -1.886,4.955 -2.1,4.813 -2.185,4.798 -2.99,4.442 -3.116,4.313 -3.289,4.181 C -3.56,3.934 -3.645,3.51 -3.648,3.135 -3.604,2.986 -3.612,2.816 -3.584,2.644 -3.45,2.275 -3.128,2.054 -2.748,1.973 l 0.093,-0.008"
         style="fill:#1a1a1a;fill-opacity:1;fill-rule:evenodd;stroke:none"
         id="path7522" />
    </g>
  </g>
</svg>
